<svg xmlns="http://www.w3.org/2000/svg" width="41" height="32" fill="none"><g clip-path="url(#a)"><path fill="#000" fill-rule="evenodd" d="m21.843 1.571 11 11h6.2l.003-.006.019.006h.064v.022l1.407.47-6.122 18.366H6.13v-.022l-.008.003L0 13.043l1.414-.471.077-.026.008.025h7.122l11-11-.46-.46L20.27 0l.46.46 1.112 1.111Zm-1.111 1.112-9.89 9.888h19.779l-9.89-9.888Zm-18.71 11.46H38.52l-5.238 15.714H7.26L2.023 14.143Z" clip-rule="evenodd"/><path fill="#40A011" stroke="#000" d="M6.5 30.5 1 13.5h38.5l-6 17h-27Z"/><path stroke="#FEEFDD" d="M20.5 25.5v-8l-3.5 2m3.5 6H17m3.5 0H24"/></g><defs><clipPath id="a"><path fill="#fff" d="M0 0h40.536v31.429H0z"/></clipPath></defs></svg>