<svg width="52" height="52" viewBox="0 0 52 52" fill="none" xmlns="http://www.w3.org/2000/svg">
<rect width="52" height="52" rx="26" fill="#333333"/>
<path d="M29.4667 19.0667H6.93341C6.4737 19.0667 6.03282 18.8841 5.70775 18.559C5.38269 18.2339 5.20007 17.793 5.20007 17.3333C5.20007 16.8736 5.38269 16.4328 5.70775 16.1077C6.03282 15.7826 6.4737 15.6 6.93341 15.6H29.4667C29.9265 15.6 30.3673 15.7826 30.6924 16.1077C31.0175 16.4328 31.2001 16.8736 31.2001 17.3333C31.2001 17.793 31.0175 18.2339 30.6924 18.559C30.3673 18.8841 29.9265 19.0667 29.4667 19.0667ZM45.0667 19.0667H38.1334C37.6737 19.0667 37.2328 18.8841 36.9078 18.559C36.5827 18.2339 36.4001 17.793 36.4001 17.3333C36.4001 16.8736 36.5827 16.4328 36.9078 16.1077C37.2328 15.7826 37.6737 15.6 38.1334 15.6H45.0667C45.5265 15.6 45.9673 15.7826 46.2924 16.1077C46.6175 16.4328 46.8001 16.8736 46.8001 17.3333C46.8001 17.793 46.6175 18.2339 46.2924 18.559C45.9673 18.8841 45.5265 19.0667 45.0667 19.0667Z" fill="#EBEBEB"/>
<path d="M33.8001 23.4C32.6002 23.4 31.4273 23.0442 30.4296 22.3776C29.432 21.711 28.6544 20.7635 28.1952 19.6549C27.736 18.5464 27.6159 17.3266 27.85 16.1498C28.0841 14.973 28.6619 13.892 29.5103 13.0436C30.3587 12.1951 31.4397 11.6173 32.6165 11.3832C33.7933 11.1492 35.0131 11.2693 36.1217 11.7285C37.2302 12.1876 38.1777 12.9652 38.8443 13.9629C39.5109 14.9605 39.8667 16.1335 39.8667 17.3333C39.8667 18.9423 39.2276 20.4854 38.0899 21.6231C36.9521 22.7608 35.4091 23.4 33.8001 23.4ZM33.8001 14.7333C33.2858 14.7333 32.7832 14.8858 32.3556 15.1715C31.928 15.4572 31.5948 15.8633 31.398 16.3384C31.2012 16.8134 31.1497 17.3362 31.25 17.8406C31.3504 18.3449 31.598 18.8082 31.9616 19.1718C32.3252 19.5354 32.7885 19.7831 33.2928 19.8834C33.7972 19.9837 34.32 19.9322 34.7951 19.7354C35.2701 19.5386 35.6762 19.2054 35.9619 18.7778C36.2476 18.3502 36.4001 17.8476 36.4001 17.3333C36.4001 16.6438 36.1261 15.9824 35.6386 15.4949C35.151 15.0073 34.4896 14.7333 33.8001 14.7333ZM45.0667 36.4H22.5334C22.0737 36.4 21.6328 36.2174 21.3078 35.8923C20.9827 35.5673 20.8001 35.1264 20.8001 34.6667C20.8001 34.207 20.9827 33.7661 21.3078 33.441C21.6328 33.1159 22.0737 32.9333 22.5334 32.9333H45.0667C45.5265 32.9333 45.9673 33.1159 46.2924 33.441C46.6175 33.7661 46.8001 34.207 46.8001 34.6667C46.8001 35.1264 46.6175 35.5673 46.2924 35.8923C45.9673 36.2174 45.5265 36.4 45.0667 36.4ZM13.8667 36.4H6.93341C6.4737 36.4 6.03282 36.2174 5.70775 35.8923C5.38269 35.5673 5.20007 35.1264 5.20007 34.6667C5.20007 34.207 5.38269 33.7661 5.70775 33.441C6.03282 33.1159 6.4737 32.9333 6.93341 32.9333H13.8667C14.3264 32.9333 14.7673 33.1159 15.0924 33.441C15.4175 33.7661 15.6001 34.207 15.6001 34.6667C15.6001 35.1264 15.4175 35.5673 15.0924 35.8923C14.7673 36.2174 14.3264 36.4 13.8667 36.4V36.4Z" fill="#EBEBEB"/>
<path d="M18.2 40.7334C17.0001 40.7334 15.8272 40.3776 14.8295 39.711C13.8319 39.0443 13.0543 38.0969 12.5951 36.9883C12.1359 35.8798 12.0158 34.66 12.2499 33.4832C12.484 32.3063 13.0618 31.2254 13.9102 30.3769C14.7586 29.5285 15.8396 28.9507 17.0164 28.7166C18.1932 28.4825 19.413 28.6027 20.5216 29.0618C21.6301 29.521 22.5776 30.2986 23.2442 31.2962C23.9108 32.2939 24.2666 33.4668 24.2666 34.6667C24.2666 36.2757 23.6275 37.8188 22.4898 38.9565C21.352 40.0942 19.809 40.7334 18.2 40.7334V40.7334ZM18.2 32.0667C17.6857 32.0667 17.1831 32.2192 16.7555 32.5049C16.3279 32.7906 15.9947 33.1966 15.7979 33.6717C15.6011 34.1468 15.5496 34.6696 15.6499 35.1739C15.7502 35.6783 15.9979 36.1416 16.3615 36.5052C16.7251 36.8688 17.1884 37.1164 17.6927 37.2167C18.1971 37.3171 18.7199 37.2656 19.1949 37.0688C19.67 36.872 20.0761 36.5388 20.3618 36.1112C20.6475 35.6836 20.8 35.1809 20.8 34.6667C20.8 33.9771 20.526 33.3158 20.0384 32.8282C19.5509 32.3406 18.8895 32.0667 18.2 32.0667Z" fill="#EBEBEB"/>
</svg>
