<svg xmlns="http://www.w3.org/2000/svg" width="42" height="30" fill="none"><g fill="#1D1D1B" clip-path="url(#a)"><path d="M24.467 8.067H1.933a1.733 1.733 0 0 1 0-3.467h22.534a1.733 1.733 0 1 1 0 3.467Zm15.6 0h-6.934a1.733 1.733 0 1 1 0-3.467h6.934a1.733 1.733 0 1 1 0 3.467Z"/><path d="M28.8 12.4a6.067 6.067 0 1 1 0-12.134 6.067 6.067 0 0 1 0 12.134Zm0-8.667a2.6 2.6 0 1 0 0 5.2 2.6 2.6 0 0 0 0-5.2ZM40.067 25.4H17.533a1.733 1.733 0 1 1 0-3.467h22.534a1.733 1.733 0 1 1 0 3.467Zm-31.2 0H1.933a1.733 1.733 0 1 1 0-3.467h6.934a1.733 1.733 0 1 1 0 3.467Z"/><path d="M13.2 29.733a6.067 6.067 0 1 1 0-12.133 6.067 6.067 0 0 1 0 12.133Zm0-8.666a2.6 2.6 0 1 0 0 5.2 2.6 2.6 0 0 0 0-5.2Z"/></g><defs><clipPath id="a"><path fill="#fff" d="M.2.267h41.6v29.467H.2z"/></clipPath></defs></svg>