<svg width="175" height="175" viewBox="0 0 175 175" fill="none" xmlns="http://www.w3.org/2000/svg">
<rect width="175" height="175" rx="87.5" fill="#EBEBEB"/>
<g clip-path="url(#clip0_26_20)">
<path d="M65.0683 73.8044C87.8944 82.0218 109.199 77.2283 119.851 73.8044C120.716 83.3166 121.489 101.778 117.568 119.457C116.314 125.11 114.074 130.567 111.862 135.435H76.4813C71.9161 129.348 63.2422 109.413 65.0683 73.8044Z" fill="black"/>
<path d="M94.7422 58.9674C92.0791 57.0652 89.4922 55.5435 91.3183 46.4131C93.9813 43.75 95.8835 37.7391 95.8835 35C95.8835 31.5761 90.177 31.5761 89.0357 24.7283M65.0683 73.8044C87.8944 82.0218 109.199 77.2283 119.851 73.8044C120.716 83.3166 121.489 101.778 117.568 119.457C116.314 125.11 114.074 130.567 111.862 135.435H76.4813C71.9161 129.348 63.2422 109.413 65.0683 73.8044Z" stroke="black" stroke-width="2.28261"/>
<path d="M119.851 72.663C130.884 71.9021 146.101 79.2826 118.71 114.891L119.851 72.663Z" stroke="black" stroke-width="2.28261"/>
<path d="M46.305 124.371C46.5659 125.193 48.2324 126.316 51.3046 127.742C53.6773 128.781 55.448 129.521 56.6167 129.96L59.646 131.103C61.4648 131.43 62.9655 131.663 64.1479 131.802L66.9767 132.167C67.6802 132.271 68.1954 132.395 68.5223 132.541C68.8305 132.677 69.0454 132.936 69.1668 133.319C69.2838 133.687 69.3277 134.071 69.2985 134.47C69.279 134.85 69.2035 135.202 69.072 135.524C68.7897 136.206 68.3794 136.633 67.8412 136.804C67.6287 136.871 67.1614 136.848 66.4393 136.734L64.462 136.473C63.8711 136.38 63.1251 136.29 62.224 136.202L58.9356 135.936C54.2265 135.592 51.263 135.613 50.0449 136C49.3933 136.207 48.9793 136.572 48.8026 137.096L48.6401 137.616C48.5859 137.789 48.4385 137.914 48.1977 137.99C47.9427 138.071 47.6727 138.055 47.3876 137.943C47.098 137.817 46.8188 137.625 46.5499 137.367C46.0217 136.833 45.6564 136.248 45.454 135.61C45.2471 134.959 45.156 134.427 45.1806 134.013C45.2053 133.6 45.2953 133.221 45.4507 132.875C45.7755 132.179 46.207 131.746 46.7452 131.575C47.2834 131.404 47.8512 131.302 48.4486 131.268C49.0318 131.239 49.6404 131.24 50.2744 131.273C50.8942 131.31 51.5044 131.366 52.1049 131.44C53.5029 131.62 54.3661 131.735 54.6943 131.787C55.0039 131.829 55.1143 131.833 55.0255 131.799C50.8456 130.273 48.3679 129.345 47.5924 129.014C45.9855 128.324 44.8516 127.748 44.1908 127.288C42.9998 126.434 42.2469 125.512 41.932 124.52C41.6126 123.515 41.6701 122.615 42.1044 121.823C42.5387 121.03 43.2657 120.472 44.2855 120.148C45.1778 119.864 46.2979 119.758 47.6457 119.829C48.9936 119.9 49.933 119.937 50.4641 119.94L45.3506 118.125L42.7153 117.045C41.2069 116.37 40.1426 115.694 39.5224 115.018C38.9023 114.342 38.5135 113.756 38.3561 113.26C38.1941 112.75 38.1288 112.225 38.16 111.685C38.1867 111.131 38.316 110.63 38.548 110.182C39.0126 109.239 39.8185 108.586 40.9658 108.222C42.0706 107.871 43.2846 107.766 44.608 107.907C45.9313 108.048 47.029 108.19 47.9012 108.334C48.7591 108.483 49.6197 108.615 50.4828 108.731C53.0632 109.05 54.8987 109.036 55.9893 108.689C56.7541 108.446 57.0376 108.013 56.8396 107.39C56.6507 106.795 56.3523 106.298 55.9444 105.897C55.5321 105.482 55.3034 105.204 55.2584 105.062C55.1639 104.765 55.2654 104.569 55.5629 104.475C56.8234 104.074 58.0833 104.384 59.3424 105.403C60.1975 106.082 60.7398 106.783 60.9692 107.505C61.1941 108.214 61.2913 108.814 61.2607 109.307C61.2302 109.8 61.087 110.282 60.8312 110.753C60.2616 111.808 59.3607 112.53 58.1285 112.922C56.8962 113.313 55.7137 113.517 54.5808 113.534C53.4479 113.55 52.3324 113.499 51.2343 113.38C50.1221 113.266 49.0948 113.124 48.1526 112.956C47.1916 112.777 46.4344 112.652 45.8809 112.578C44.7455 112.439 43.9441 112.444 43.4767 112.593C42.9243 112.768 42.7403 113.146 42.9247 113.727C43.1676 114.492 44.8716 115.463 48.0366 116.641C50.4821 117.517 52.2291 118.108 53.2775 118.415L55.8676 119.206C57.6865 119.533 59.1826 119.751 60.356 119.862L63.1646 120.163C63.8591 120.239 64.3653 120.335 64.6832 120.452C64.987 120.574 65.1951 120.812 65.3075 121.166C65.42 121.52 65.4735 121.885 65.4682 122.261C65.4583 122.623 65.3996 122.954 65.2919 123.253C65.0566 123.936 64.7123 124.349 64.2591 124.493C63.7917 124.641 63.1141 124.693 62.2265 124.647C61.3202 124.592 60.2994 124.495 59.164 124.357L51.9308 123.38C49.2564 123.06 47.6076 122.999 46.9844 123.196C46.3471 123.399 46.1206 123.79 46.305 124.371ZM51.6283 120.365C51.6238 120.351 51.6144 120.346 51.6003 120.351L51.551 120.343C51.5884 120.362 51.6141 120.37 51.6283 120.365Z" fill="black"/>
<path d="M54.8819 84.0908C55.8851 84.0337 56.3656 83.6341 56.3233 82.8922C56.2983 82.4533 56.1817 82.0616 55.9733 81.717C55.7644 81.3619 55.657 81.1322 55.651 81.0277C55.6385 80.8082 55.7472 80.6919 55.9771 80.6789C56.8967 80.6265 57.698 81.0736 58.3809 82.0202C58.8579 82.664 59.1137 83.2889 59.1482 83.895C59.1827 84.5011 59.1427 84.9961 59.0283 85.3801C58.9029 85.7542 58.6963 86.0857 58.4088 86.3746C57.8145 86.9851 56.8956 87.3257 55.652 87.3966C54.6697 87.4525 53.5203 87.3345 52.2036 87.0425C50.887 86.7506 49.9522 86.5365 49.3993 86.4002L51.9688 87.8894C57.083 90.9844 59.7061 93.6919 59.8382 96.0118C59.9281 97.5897 59.329 98.667 58.0408 99.2436C57.6213 99.4247 57.2496 99.5245 56.9256 99.543L56.33 99.5769C55.0133 99.6519 52.5574 99.0526 48.9623 97.7792L41.1899 94.9508C39.6494 94.4095 38.7015 94.149 38.3462 94.1692C37.9909 94.1895 37.728 94.2674 37.5575 94.4029C37.387 94.5384 37.254 94.6875 37.1584 94.8502L36.869 95.2913C36.7925 95.4214 36.6707 95.4913 36.5035 95.5008C36.3363 95.5103 36.1643 95.4362 35.9876 95.2786C35.8109 95.1209 35.6521 94.9098 35.5112 94.6452C35.2399 94.1155 35.0894 93.5894 35.0596 93.0669C35.0293 92.534 35.0636 92.1231 35.1624 91.8344C35.2503 91.5359 35.3724 91.2878 35.5289 91.0902C35.8529 90.7048 36.2605 90.4981 36.7517 90.4701C37.2324 90.4428 37.8072 90.5044 38.4763 90.655C39.1448 90.7951 39.8795 90.9944 40.6805 91.2528C41.4705 91.5014 42.3101 91.7943 43.1995 92.1316L48.5706 94.216C51.9905 95.5414 54.2386 96.1734 55.3149 96.1121L55.5501 96.0987C56.5428 96.0422 57.0177 95.6377 56.9749 94.8853C56.8963 93.5059 55.0648 91.8123 51.4803 89.8043C50.4187 89.2043 49.2996 88.6075 48.1231 88.0141L44.503 86.3017C39.0489 83.8655 35.939 82.4596 35.1733 82.0838C34.7852 81.8962 34.5801 81.6091 34.5581 81.2225C34.536 80.8358 34.5751 80.5086 34.6751 80.2408C34.7648 79.9736 34.893 79.7409 35.06 79.5427C35.453 79.08 35.8647 78.9465 36.2952 79.1421C38.2432 80.0271 41.3372 81.0618 45.5773 82.2461C50.2442 83.5634 53.3458 84.1783 54.8819 84.0908Z" fill="black"/>
<path d="M53.5619 75.4559L53.0706 75.2912C49.8097 74.1854 46.9447 72.4171 44.4757 69.9864C42.2329 67.8034 40.6028 65.3589 39.5852 62.6529C38.5919 60.0263 38.3982 57.6984 39.0041 55.6694C39.465 54.1255 40.3621 53.0722 41.6951 52.5094C42.8519 52.0141 44.103 51.9673 45.4484 52.369C47.0584 52.8497 48.4701 53.9139 49.6837 55.5614C50.3838 56.5151 50.8187 57.4316 50.9885 58.3111C51.0751 58.7453 51.0706 59.1223 50.9751 59.4421C50.8829 59.7508 50.7311 60.0178 50.5198 60.2429C50.3084 60.4681 50.0755 60.6447 49.821 60.7729C49.2659 61.0636 48.8173 61.1578 48.4755 61.0558C48.1336 60.9537 47.9229 60.7947 47.8432 60.5787C47.082 58.3817 46.111 56.7465 44.9301 55.6733C44.4732 55.2727 43.9912 54.9966 43.4839 54.8451C42.4143 54.5257 41.728 54.8733 41.425 55.8878C40.9443 57.4978 41.3568 59.4346 42.6627 61.6982C43.8724 63.8009 45.5847 65.7895 47.7995 67.6639C50.0771 69.5691 52.2977 70.8807 54.4614 71.5989C56.7553 72.4039 58.4803 72.3185 59.6365 71.3425C60.0373 71.0058 60.3299 70.5287 60.5143 69.9111C60.6987 69.2936 60.7243 68.6647 60.5912 68.0244C60.4614 67.3731 60.2313 66.776 59.901 66.2329C59.1654 65.0765 58.2661 64.3275 57.203 63.986C56.4046 63.7236 55.7621 63.844 55.2755 64.3473C55.0818 64.5537 54.909 64.7904 54.7572 65.0573C54.6087 65.3133 54.4624 65.5218 54.3182 65.6829C54.1663 65.8297 53.9767 65.8211 53.7494 65.6572C53.5111 65.4899 53.2903 65.2439 53.087 64.9189C52.5723 64.0686 52.4285 63.263 52.6557 62.5021C52.7314 62.2485 52.9001 61.8845 53.1619 61.4102C53.6546 60.5244 53.9503 59.9161 54.0491 59.5852C54.1479 59.2544 54.2197 58.9936 54.2647 58.8029C54.3019 58.5978 54.3281 58.3894 54.3433 58.1778C54.379 57.696 54.3845 57.2352 54.3597 56.7954C54.3334 56.079 54.5794 55.7981 55.0977 55.9529C55.6049 56.1043 56.0534 56.3523 56.4429 56.6969C56.8325 57.0414 57.1328 57.4433 57.344 57.9027C57.8159 58.8964 57.868 59.9689 57.5002 61.1202C58.2532 61.2129 59.1038 61.7431 60.0519 62.7108C61.7594 64.4338 62.688 66.4526 62.8376 68.7672C62.8926 69.5884 62.7819 70.4621 62.5053 71.3884C62.232 72.3037 61.8202 73.0995 61.2699 73.776C60.7086 74.4491 60.0424 74.9708 59.2712 75.3411C57.6815 76.0795 55.7784 76.1178 53.5619 75.4559Z" fill="black"/>
<path d="M65.0683 72.663C68.4922 79.5109 100.449 89.7826 119.851 72.663C108.818 70.3804 82.4161 67.1848 65.0683 72.663Z" fill="white" stroke="black" stroke-width="2.28261"/>
</g>
<defs>
<clipPath id="clip0_26_20">
<rect width="146.087" height="125.543" fill="white" transform="translate(15.2174 24.7283)"/>
</clipPath>
</defs>
</svg>
